<?xml version="1.0" standalone="no"?>
<!DOCTYPE svg PUBLIC "-//W3C//DTD SVG 20010904//EN"
 "http://www.w3.org/TR/2001/REC-SVG-20010904/DTD/svg10.dtd">
<svg version="1.0" xmlns="http://www.w3.org/2000/svg"
 width="256.000000pt" height="256.000000pt" viewBox="0 0 256.000000 256.000000"
 preserveAspectRatio="xMidYMid meet">

<g transform="translate(0.000000,256.000000) scale(0.100000,-0.100000)"
fill="#000000" stroke="none">
<path d="M0 1982 l0 -578 46 -44 c26 -25 43 -39 39 -31 -5 9 2 7 18 -5 15 -10
27 -23 27 -28 0 -5 -9 -1 -19 8 -14 13 -21 14 -26 6 -5 -8 -22 -10 -46 -7 -38
5 -39 4 -39 -24 0 -22 5 -29 20 -29 11 0 20 -7 20 -16 0 -8 4 -13 8 -10 4 2
14 1 22 -5 11 -6 8 -9 -12 -9 -31 0 -47 -18 -27 -31 8 -5 15 -4 17 2 6 17 32
-11 32 -35 0 -27 -16 -53 -27 -43 -4 4 -2 17 5 27 15 25 15 35 0 23 -7 -5 -23
-8 -35 -7 -22 1 -23 -3 -23 -61 0 -46 4 -64 14 -68 10 -4 13 -1 9 9 -3 7 0 14
7 14 10 0 10 3 0 15 -15 18 1 20 18 3 17 -17 16 -84 -1 -71 -36 28 -45 23 -45
-25 1 -26 3 -39 5 -29 3 9 8 17 13 17 13 0 19 -27 9 -37 -15 -15 0 -42 32 -59
33 -17 37 -24 11 -24 -10 0 -28 9 -40 20 -12 11 -23 20 -26 20 -3 0 -5 -196
-6 -435 l0 -435 1280 0 1280 0 0 405 0 405 -25 12 c-19 8 -31 8 -50 0 -36 -17
-43 -15 -16 4 15 11 34 14 57 11 l34 -6 -1 160 c-1 149 -3 159 -20 159 -11 0
-19 -4 -19 -10 0 -5 5 -10 10 -10 6 0 10 -9 10 -20 0 -27 -14 -25 -29 4 -19
34 -10 61 19 61 21 0 26 6 28 33 3 24 -3 38 -20 52 l-23 19 23 -6 c15 -4 22
-1 22 10 0 23 -24 39 -38 25 -17 -17 -27 -2 -12 17 10 12 8 18 -11 35 -13 10
-29 19 -35 20 -7 0 -15 16 -18 35 -7 33 -36 62 -50 48 -3 -3 -6 0 -6 8 0 13
-33 49 -45 49 -3 0 -5 -7 -5 -15 0 -8 9 -15 20 -15 11 0 20 -4 20 -10 0 -5 -9
-10 -19 -10 -34 0 -51 -11 -51 -34 0 -11 -5 -28 -10 -36 -8 -13 -10 -12 -10 3
0 9 -7 17 -15 17 -8 0 -15 8 -14 18 0 10 3 12 6 5 8 -22 23 -14 23 12 0 14 -4
25 -10 25 -6 0 -5 10 2 25 13 30 32 34 23 5 -4 -11 -2 -20 4 -20 18 0 12 46
-9 84 -40 67 -3 42 125 -84 71 -71 132 -127 134 -124 3 2 -61 71 -142 152
-129 131 -163 172 -141 172 3 0 69 -62 145 -137 l139 -137 0 572 0 572 -1280
0 -1280 0 0 -578z m1410 383 c65 -65 108 -115 99 -115 -9 0 -22 7 -29 15 -7 8
-53 52 -102 96 l-88 82 -100 -97 c-54 -53 -107 -96 -117 -96 -11 0 23 41 97
115 63 63 117 115 120 115 3 0 57 -52 120 -115z m-30 -32 c80 -81 86 -97 12
-29 -31 29 -38 31 -104 30 -58 0 -74 -4 -87 -20 -9 -11 -30 -29 -46 -39 -17
-10 6 18 50 63 44 45 82 82 85 82 3 0 44 -39 90 -87z m-989 -46 c17 -53 20
-82 15 -124 -4 -31 -2 -60 2 -67 8 -10 24 -186 17 -186 -8 0 -39 59 -46 85
l-7 30 -1 -36 c-1 -19 -7 -43 -14 -54 -12 -15 -15 -3 -20 90 -3 59 -11 113
-17 119 -16 16 -12 141 6 204 16 54 17 55 30 31 8 -13 23 -55 35 -92z m577 37
c-49 -26 -27 -100 26 -90 14 3 26 2 26 -2 0 -14 -59 -33 -83 -27 -27 7 -63 63
-54 86 3 9 6 5 6 -8 1 -28 21 -31 21 -4 0 22 45 61 69 61 10 -1 6 -6 -11 -16z
m643 -8 c-14 -15 -21 -33 -19 -48 2 -19 10 -23 46 -26 24 -2 50 2 58 9 25 21
15 -7 -13 -35 -25 -25 -27 -26 -52 -10 -35 22 -61 53 -61 73 0 24 29 61 47 61
13 0 12 -5 -6 -24z m-262 5 c18 -1 22 -5 18 -21 -4 -14 0 -20 11 -20 10 0 30
-11 46 -25 20 -17 41 -25 68 -25 41 0 51 -14 16 -23 l-22 -6 22 -24 c28 -30
28 -40 0 -31 l-23 6 22 -23 c12 -14 24 -45 28 -73 9 -58 -5 -56 -25 4 -17 53
-30 60 -31 18 0 -27 -2 -30 -9 -13 -7 17 -9 17 -9 3 -2 -33 -21 -18 -21 15 0
18 -7 42 -15 53 -13 16 -16 17 -25 4 -8 -12 -10 -11 -10 6 0 11 -7 29 -15 40
-14 18 -14 18 -9 -3 3 -12 1 -30 -5 -40 -10 -17 -10 -16 -11 4 0 12 -5 25 -10
28 -6 3 -18 22 -28 42 l-19 35 -26 -45 c-15 -25 -27 -53 -27 -62 0 -9 -4 -13
-10 -10 -5 3 -10 21 -10 38 -1 29 -2 30 -14 15 -18 -24 -30 -23 -23 2 5 18 0
20 -46 20 -29 0 -59 5 -67 10 -11 7 -5 10 24 10 26 0 47 8 68 25 16 14 39 25
50 25 17 0 18 3 8 15 -10 12 -10 16 1 19 27 9 54 13 79 11 14 -2 36 -3 49 -4z
m544 -59 c-7 -7 -13 -19 -13 -25 -1 -7 -7 -1 -14 12 -10 18 -11 30 -3 41 9 16
11 16 26 1 14 -13 14 -18 4 -29z m-1173 -32 c0 -5 -2 -10 -4 -10 -3 0 -8 5
-11 10 -3 6 -1 10 4 10 6 0 11 -4 11 -10z m870 -42 c0 -6 -6 -5 -15 2 -8 7
-15 14 -15 16 0 2 7 1 15 -2 8 -4 15 -11 15 -16z m415 12 c3 -5 1 -10 -4 -10
-6 0 -11 5 -11 10 0 6 2 10 4 10 3 0 8 -4 11 -10z m-845 -11 c0 -5 -4 -7 -10
-4 -5 3 -10 0 -10 -7 0 -8 -8 -14 -17 -14 -10 0 -29 -4 -43 -8 l-25 -7 28 25
c28 26 77 35 77 15z m-466 -20 c18 -14 26 -16 27 -7 0 11 1 11 6 0 4 -10 11
-8 28 8 13 13 33 20 46 18 21 -3 20 -5 -16 -32 -51 -39 -87 -38 -128 2 -29 29
-30 32 -11 32 12 0 33 -9 48 -21z m1121 11 c3 -5 1 -10 -4 -10 -6 0 -11 5 -11
10 0 6 2 10 4 10 3 0 8 -4 11 -10z m270 -20 c3 -5 -1 -10 -9 -10 -9 0 -16 5
-16 10 0 6 4 10 9 10 6 0 13 -4 16 -10z m-1125 -10 c11 -7 8 -10 -15 -10 -70
0 -75 -54 -9 -105 59 -44 43 -46 -22 -2 -37 24 -50 39 -52 60 -6 52 53 86 98
57z m749 -16 c32 -41 26 -61 -26 -94 -58 -37 -67 -32 -19 10 42 38 44 49 13
79 -24 22 -43 21 -77 -3 -9 -6 -5 -1 8 12 32 31 75 29 101 -4z m-593 -5 c-14
-11 -35 -39 -46 -62 l-20 -42 6 39 c8 54 31 86 61 86 l26 0 -27 -21z m1194
-46 c0 -23 -4 -45 -10 -48 -5 -3 -10 -15 -10 -25 0 -10 -5 -22 -10 -25 -7 -4
-9 2 -4 19 3 15 2 32 -3 39 -11 15 -11 22 7 69 17 45 30 33 30 -29z m-1740 27
c0 -5 -4 -10 -10 -10 -5 0 -10 5 -10 10 0 6 5 10 10 10 6 0 10 -4 10 -10z
m1382 -17 c27 -15 56 -40 64 -55 l15 -28 -58 1 c-56 2 -56 2 -18 9 22 4 30 8
18 9 -27 1 -30 17 -5 25 9 2 -1 2 -23 -1 -36 -6 -39 -5 -26 10 17 22 7 22 -25
1 -14 -10 -24 -13 -23 -8 5 27 -1 36 -15 25 -12 -10 -15 -8 -18 10 l-3 22 -22
-24 c-12 -13 -32 -35 -43 -49 l-21 -25 15 30 c40 82 98 97 188 48z m-597 -47
c19 -21 37 -54 44 -83 7 -26 24 -63 38 -81 26 -35 25 -62 -3 -62 -10 0 -15 3
-11 6 7 8 -15 53 -55 112 l-30 44 -25 -24 -24 -23 -18 24 c-21 27 -35 22 -56
-20 -9 -16 -20 -27 -25 -24 -5 3 -12 -5 -16 -17 -3 -12 -13 -28 -21 -36 -8 -8
-11 -22 -8 -31 5 -13 4 -14 -7 -3 -10 10 -7 23 19 70 17 31 33 69 37 84 3 15
20 43 37 63 42 47 80 48 124 1z m-815 -6 c0 -5 -7 -10 -16 -10 -8 0 -12 5 -9
10 3 6 10 10 16 10 5 0 9 -4 9 -10z m1686 -5 c28 5 35 3 32 -7 -3 -7 -14 -14
-26 -16 -15 -2 -19 -8 -15 -20 5 -14 4 -15 -8 -6 -11 9 -20 4 -42 -23 -21 -24
-25 -33 -14 -33 9 0 19 -5 23 -11 4 -8 -1 -9 -17 -3 -13 4 -39 7 -57 6 -20 -1
-31 2 -27 8 3 5 18 10 33 10 21 0 32 9 49 40 12 22 17 42 12 46 -5 3 -9 10 -9
16 0 7 5 6 15 -2 9 -8 28 -10 51 -5z m-1471 -18 c32 -18 41 -31 53 -72 7 -28
23 -70 36 -95 l22 -45 -20 -20 c-23 -22 -73 -55 -84 -55 -4 0 8 12 26 26 39
31 40 39 4 69 -15 13 -34 35 -41 49 -17 31 -39 33 -74 6 -32 -25 -33 -25 -62
7 l-23 28 -23 -20 -22 -20 11 22 c14 26 32 33 54 22 15 -8 16 -5 7 23 -5 18
-9 35 -9 37 0 2 -7 -2 -15 -9 -24 -20 -17 4 8 27 22 21 69 41 97 42 8 0 33 -9
55 -22z m1583 -3 c13 -9 32 -14 43 -11 20 5 27 -9 8 -15 -19 -6 15 -89 42
-104 22 -12 22 -13 4 -13 -27 -1 -69 46 -71 78 -1 18 -6 25 -18 23 -9 -2 -16
3 -16 9 0 7 -7 21 -17 31 -20 22 -5 24 25 2z m-1376 -42 c35 -21 75 -43 90
-49 20 -9 25 -17 21 -32 -7 -27 -33 -27 -40 0 -4 15 -8 17 -14 8 -6 -10 -12
-9 -29 6 l-21 19 6 -27 c10 -39 -9 -34 -56 14 -42 44 -46 62 -7 35 32 -23 60
-21 33 2 -27 23 -60 62 -52 62 4 0 35 -17 69 -38z m718 19 c-5 -11 -22 -29
-36 -40 -31 -25 -16 -28 26 -6 35 18 39 7 10 -21 -12 -10 -28 -27 -38 -36 -9
-10 -25 -18 -36 -18 -18 0 -18 1 -3 18 26 29 20 38 -8 12 l-25 -23 0 24 c0 22
-2 21 -22 -11 l-22 -35 -6 25 c-7 25 -9 23 -23 -20 -4 -11 -6 -11 -6 3 -1 11
-6 16 -13 12 -7 -4 2 7 20 24 18 17 40 31 49 31 9 0 24 6 32 14 15 12 103 66
109 66 1 0 -2 -9 -8 -19z m360 -1 c0 -5 -21 -10 -47 -10 -27 0 -58 -3 -70 -6
-13 -4 -23 -2 -23 4 0 14 24 19 88 21 29 0 52 -3 52 -9z m-170 -30 c12 -7 10
-9 -8 -7 -12 0 -22 5 -22 9 0 11 12 10 30 -2z m135 0 c-3 -5 1 -10 10 -10 10
0 15 -7 13 -17 -4 -21 -73 -27 -89 -7 -12 15 5 28 27 20 8 -3 17 1 20 9 4 8
10 15 16 15 5 0 6 -4 3 -10z m-97 -34 c-3 -24 0 -32 9 -29 9 4 13 -4 13 -24 0
-39 8 -45 34 -28 28 20 43 19 51 -4 3 -11 12 -18 20 -15 7 3 16 1 19 -5 8 -12
-24 -153 -34 -149 -3 2 -34 33 -68 70 -34 37 -64 63 -67 57 -4 -5 -15 -9 -26
-9 -19 0 -19 1 -5 16 18 17 22 39 6 29 -18 -11 -11 26 10 52 11 14 20 36 20
49 0 13 5 24 11 24 7 0 10 -13 7 -34z m392 14 c11 -11 20 -27 20 -35 0 -16
-35 -55 -49 -55 -23 0 -43 15 -52 38 -8 20 -5 29 12 49 27 28 43 29 69 3z
m-1860 -97 c0 -10 -5 -11 -18 -4 -29 15 -45 39 -36 53 6 10 3 9 -9 -1 -19 -15
-22 -8 -6 20 10 19 12 18 40 -17 16 -20 29 -43 29 -51z m1598 38 c18 -22 -4
-28 -27 -7 -16 15 -19 15 -31 1 -12 -15 -40 -21 -40 -8 0 3 7 15 16 25 19 21
61 15 82 -11z m-935 4 c4 -8 2 -17 -3 -20 -6 -4 -10 -4 -10 -1 0 2 -3 11 -6
20 -3 9 -2 16 4 16 5 0 12 -7 15 -15z m1077 -59 c-8 -8 -9 -6 -5 5 4 10 2 20
-4 24 -6 3 -11 16 -11 28 1 17 4 15 16 -12 10 -25 11 -38 4 -45z m-510 49
c-14 -17 -30 -20 -30 -6 0 5 8 12 18 14 9 3 19 5 21 6 2 0 -2 -6 -9 -14z m720
6 c0 -5 -9 -7 -20 -4 -11 3 -20 7 -20 9 0 2 9 4 20 4 11 0 20 -4 20 -9z
m-1932 -32 c-3 -8 -7 -3 -11 10 -4 17 -3 21 5 13 5 -5 8 -16 6 -23z m778 -61
c16 -17 23 -29 15 -26 -8 2 -28 20 -44 40 -22 28 -27 41 -21 60 7 22 8 21 15
-10 4 -19 20 -47 35 -64z m499 82 c3 -5 1 -10 -4 -10 -6 0 -11 5 -11 10 0 6 2
10 4 10 3 0 8 -4 11 -10z m-1388 -32 c-3 -7 -5 -2 -5 12 0 14 2 19 5 13 2 -7
2 -19 0 -25z m714 -4 c9 -11 2 -9 -18 6 -18 13 -33 25 -33 27 0 8 38 -17 51
-33z m339 7 c0 -9 -14 -30 -32 -47 l-31 -29 22 31 c12 16 23 40 24 51 1 25 17
20 17 -6z m-1107 12 c-7 -2 -19 -2 -25 0 -7 3 -2 5 12 5 14 0 19 -2 13 -5z
m227 -3 c0 -12 -8 -12 -35 0 -18 8 -17 9 8 9 15 1 27 -3 27 -9z m210 -36 c0
-7 -15 -38 -33 -69 l-34 -55 -16 37 c-27 65 -31 87 -15 80 9 -3 28 7 44 23 26
25 30 26 42 12 6 -9 12 -21 12 -28z m267 30 c-3 -3 -12 -4 -19 -1 -8 3 -5 6 6
6 11 1 17 -2 13 -5z m564 -14 c11 0 17 -4 14 -10 -3 -5 -15 -10 -26 -10 -13 0
-19 7 -18 23 0 12 3 16 6 10 2 -7 14 -13 24 -13z m54 10 c-3 -5 -12 -7 -20 -3
-21 7 -19 13 6 13 11 0 18 -4 14 -10z m732 -19 c-6 -17 -16 -27 -21 -23 -6 4
-20 5 -31 4 -14 -2 -11 2 10 13 17 9 34 20 40 26 14 14 14 12 2 -20z m-1302
-1 c8 -13 -15 -13 -35 0 -12 8 -11 10 7 10 12 0 25 -4 28 -10z m692 3 c-4 -3
1 -15 10 -26 17 -19 17 -20 -4 -8 -17 9 -25 8 -38 -5 -9 -9 -19 -14 -22 -10
-3 3 7 17 23 31 26 22 48 35 31 18z m-1327 -7 c0 -3 -4 -8 -10 -11 -5 -3 -10
-1 -10 4 0 6 5 11 10 11 6 0 10 -2 10 -4z m133 -21 c-3 -9 -8 -14 -10 -11 -3
3 -2 9 2 15 9 16 15 13 8 -4z m444 4 c-14 -8 -22 -8 -30 0 -8 8 -3 11 19 11
25 -1 27 -2 11 -11z m630 -5 c-16 -8 -36 -13 -45 -11 -11 3 -8 5 8 6 20 1 22
3 10 11 -11 7 -6 10 20 9 l35 0 -28 -15z m-482 -3 c3 -5 -2 -17 -11 -25 -17
-18 -28 -21 -19 -6 10 16 -7 12 -27 -7 -10 -9 -18 -13 -18 -10 0 8 53 57 62
57 4 0 9 -4 13 -9z m357 -11 c14 -11 33 -39 43 -62 9 -24 24 -52 33 -62 17
-18 15 -19 -36 -13 -38 4 -63 14 -90 37 -22 18 -48 30 -65 30 -44 0 -30 30 28
62 60 33 56 33 87 8z m-745 -12 c-3 -8 -6 -5 -6 6 -1 11 2 17 5 13 3 -3 4 -12
1 -19z m1353 -42 c0 -6 -9 0 -20 14 -26 33 -25 52 0 21 11 -13 20 -28 20 -35z
m165 44 c7 -12 -2 -12 -30 0 -19 8 -19 9 2 9 12 1 25 -3 28 -9z m-1047 -23
c30 -14 23 -30 -16 -38 -18 -4 -47 -18 -66 -33 -21 -15 -55 -29 -83 -33 l-47
-6 22 28 c12 15 22 36 22 46 0 11 4 19 9 19 12 0 -8 -62 -23 -73 -6 -5 7 -6
29 -2 47 8 54 13 36 25 -12 7 -12 12 2 33 9 14 26 29 38 32 17 6 19 9 8 16
-19 13 38 1 69 -14z m102 4 c14 -27 13 -28 -12 -26 -12 1 -24 7 -26 13 -2 7
-9 9 -15 5 -7 -4 -6 1 2 10 18 22 38 22 51 -2z m-890 -1 c0 -5 -7 -10 -15 -10
-8 0 -15 5 -15 10 0 6 7 10 15 10 8 0 15 -4 15 -10z m-133 -37 c7 -9 13 -29
13 -44 0 -24 4 -28 33 -31 50 -5 43 -33 -8 -32 -22 0 -46 2 -54 5 -10 3 -17
-7 -21 -29 -4 -18 -11 -36 -14 -40 -10 -9 -26 19 -26 46 0 18 -6 22 -32 22
-17 0 -40 -7 -50 -17 -10 -9 -18 -12 -18 -7 1 28 44 54 90 54 38 0 49 23 25
50 -14 15 -21 17 -32 9 -21 -18 -25 -6 -6 20 13 19 22 22 52 17 20 -3 42 -13
48 -23z m645 -10 c36 -37 32 -47 -17 -47 -21 0 -30 -3 -22 -8 7 -5 -1 -8 -21
-8 -24 0 -42 9 -65 31 l-31 32 23 19 c37 29 94 22 133 -19z m1313 27 c3 -5 -1
-10 -9 -10 -8 0 -18 5 -21 10 -3 6 1 10 9 10 8 0 18 -4 21 -10z m-1760 -30
c-10 -11 -23 -20 -28 -20 -6 0 -2 9 8 20 10 11 23 20 28 20 6 0 2 -9 -8 -20z
m1405 0 c0 -11 -6 -20 -13 -20 -19 0 -27 10 -20 26 8 21 33 17 33 -6z m-1483
-12 c-3 -8 -6 -5 -6 6 -1 11 2 17 5 13 3 -3 4 -12 1 -19z m1678 -50 c28 -53
32 -73 10 -44 -8 11 -15 15 -15 9 0 -6 10 -23 21 -38 18 -22 20 -29 8 -36 -21
-13 -34 -11 -57 10 -25 21 -29 41 -7 41 9 0 16 -10 16 -22 1 -13 5 -3 9 22 6
35 3 53 -11 80 -20 37 -26 65 -8 40 5 -8 21 -36 34 -62z m-885 37 c-7 -9 -15
-13 -19 -10 -3 3 1 10 9 15 21 14 24 12 10 -5z m36 0 c-3 -20 -24 -40 -32 -32
-4 4 1 16 11 27 22 24 24 25 21 5z m127 -5 c4 0 5 5 1 11 -4 8 0 8 15 0 11 -7
21 -16 21 -22 0 -6 -4 -8 -8 -5 -4 2 -14 1 -22 -4 -17 -11 -40 6 -40 28 0 12
3 13 12 4 7 -7 16 -12 21 -12z m344 14 c-3 -3 -12 -4 -19 -1 -8 3 -5 6 6 6 11
1 17 -2 13 -5z m543 -20 c15 -38 12 -74 -5 -74 -8 0 -15 5 -15 10 0 6 -10 10
-22 11 -22 1 -22 1 2 8 l25 7 -25 9 -25 8 25 9 25 10 -22 9 c-30 11 -29 19 2
19 18 0 28 -7 35 -26z m-1830 -22 c0 -15 -2 -15 -10 -2 -13 20 -13 33 0 25 6
-3 10 -14 10 -23z m850 20 c0 -13 -31 -52 -41 -52 -6 0 -2 14 8 30 16 28 33
39 33 22z m70 -43 c0 -5 -9 -4 -20 3 -11 7 -20 22 -20 33 1 19 2 19 20 -4 11
-13 20 -27 20 -32z m295 41 c-3 -5 -11 -10 -16 -10 -6 0 -7 5 -4 10 3 6 11 10
16 10 6 0 7 -4 4 -10z m545 0 c0 -5 -4 -10 -10 -10 -5 0 -10 5 -10 10 0 6 5
10 10 10 6 0 10 -4 10 -10z m-329 -17 c-11 -21 -46 -54 -82 -77 -27 -17 -171
-48 -163 -34 3 4 13 8 23 8 9 0 22 5 29 12 6 6 25 13 42 15 40 4 99 35 129 67
29 30 35 33 22 9z m144 -3 c0 -7 -5 -15 -12 -17 -7 -3 -11 4 -10 16 1 23 22
23 22 1z m-1255 -6 c0 -8 -67 -34 -87 -34 -32 1 25 40 58 40 16 0 29 -2 29 -6z
m928 -1 c-10 -2 -26 -2 -35 0 -10 3 -2 5 17 5 19 0 27 -2 18 -5z m259 -39
c-15 -51 -77 -128 -77 -96 0 5 9 18 20 30 11 11 17 28 14 36 -4 11 0 16 10 16
9 0 16 8 16 18 0 16 20 46 26 39 2 -2 -2 -21 -9 -43z m-1023 -35 c15 -14 -49
7 -77 26 -14 9 -28 22 -31 30 -4 13 85 -34 108 -56z m1136 55 c0 -8 -4 -12
-10 -9 -5 3 -10 10 -10 16 0 5 5 9 10 9 6 0 10 -7 10 -16z m-1076 -10 c5 -13
1 -15 -21 -9 -43 10 -52 25 -16 25 19 0 33 -6 37 -16z m336 -14 c0 -13 -5 -17
-15 -14 -29 11 -15 -14 15 -28 19 -8 30 -20 30 -33 -1 -20 -1 -20 -15 -1 -15
20 -20 12 -16 -21 1 -7 -4 -13 -10 -13 -7 0 -9 3 -6 7 4 3 -4 16 -18 29 -20
18 -21 23 -9 28 8 3 13 10 10 15 -9 14 12 63 24 56 5 -3 10 -15 10 -25z m199
-6 c8 -16 31 -50 52 -75 51 -61 56 -78 56 -186 1 -70 -3 -96 -14 -105 -13 -10
-14 1 -8 88 9 122 0 147 -48 142 -21 -2 -36 -11 -45 -28 -13 -24 -13 -24 -8
13 3 22 1 37 -6 37 -6 0 -6 6 2 15 8 10 9 15 2 15 -7 0 -9 7 -5 17 4 10 2 14
-4 10 -6 -4 -11 13 -12 44 -2 58 14 63 38 13z m-359 -17 c0 -10 -4 -15 -10
-12 -5 3 -10 18 -10 33 0 21 2 24 10 12 5 -8 10 -23 10 -33z m820 28 c0 -8 7
-15 15 -15 8 0 15 7 15 16 0 21 24 12 29 -11 2 -11 -5 -34 -14 -52 -14 -25
-25 -33 -45 -33 -23 0 -26 4 -28 36 -3 41 5 74 19 74 5 0 9 -7 9 -15z m-1183
-11 c3 -9 2 -19 -4 -23 -5 -3 -13 -15 -17 -26 -7 -19 -8 -19 -20 -2 -18 23
-26 22 -23 -4 3 -30 -19 -35 -33 -9 -10 18 -8 26 11 46 13 14 29 22 36 20 7
-3 13 -1 13 4 0 16 30 11 37 -6z m295 -26 c-6 -6 -7 0 -4 19 5 21 7 23 10 9 2
-10 0 -22 -6 -28z m365 5 c-3 -10 -5 -4 -5 12 0 17 2 24 5 18 2 -7 2 -21 0
-30z m-110 5 c-3 -8 -6 -5 -6 6 -1 11 2 17 5 13 3 -3 4 -12 1 -19z m-991 0 c4
-7 3 -8 -5 -4 -6 4 -18 2 -26 -4 -18 -15 -20 -56 -3 -66 8 -5 9 -2 5 9 -3 9
-2 19 2 22 21 12 22 -90 2 -139 -9 -22 -9 -32 0 -42 7 -8 9 -17 5 -21 -3 -3
-6 -2 -6 3 0 6 -9 20 -20 31 -16 18 -17 22 -4 27 8 3 14 14 12 23 -3 18 -43
56 -62 59 -6 1 -15 3 -21 5 -5 2 -20 -2 -32 -9 -18 -10 -21 -18 -16 -50 5 -32
4 -35 -8 -25 -12 10 -20 7 -42 -13 -15 -14 -27 -22 -27 -18 0 3 -7 1 -15 -6
-12 -10 -15 -9 -15 7 0 20 129 153 149 153 6 0 11 -7 11 -15 0 -8 8 -15 19
-15 10 0 24 -7 31 -15 7 -8 17 -15 22 -15 5 0 2 7 -6 16 -9 8 -16 20 -16 25 0
5 -8 9 -17 9 -17 1 -17 1 0 11 9 5 17 16 17 24 0 32 51 58 66 33z m94 2 c0 -5
-9 -10 -19 -10 -11 0 -23 5 -26 10 -4 6 5 10 19 10 14 0 26 -4 26 -10z m30 0
c0 -5 -2 -10 -4 -10 -3 0 -8 5 -11 10 -3 6 -1 10 4 10 6 0 11 -4 11 -10z m90
-5 c0 -8 -4 -15 -9 -15 -5 0 -12 -8 -14 -17 -3 -12 -5 -9 -6 8 0 14 2 29 6 32
11 12 23 8 23 -8z m70 5 c0 -5 -2 -10 -4 -10 -3 0 -8 5 -11 10 -3 6 -1 10 4
10 6 0 11 -4 11 -10z m50 -5 c-12 -15 -30 -12 -30 6 0 5 10 9 21 9 18 0 19 -2
9 -15z m-230 -25 c0 -5 -12 -10 -27 -10 -22 0 -25 2 -13 10 20 13 40 13 40 0z
m131 -47 c-9 -17 -10 -17 -16 0 -4 9 -4 25 0 35 6 16 7 16 16 0 7 -12 7 -24 0
-35z m119 -10 c53 -55 46 -57 -13 -4 -25 23 -53 61 -45 61 2 0 28 -26 58 -57z
m91 4 c-14 -14 -26 17 -16 41 6 15 8 14 16 -7 6 -16 6 -28 0 -34z m1376 35
c-10 -11 -17 -37 -18 -63 0 -24 -3 -38 -6 -31 -10 26 -23 10 -23 -29 0 -48
-16 -44 -26 6 -11 60 2 101 39 119 42 21 54 20 34 -2z m-1987 0 c0 -14 -136
-143 -143 -135 -4 4 23 38 60 75 64 64 83 78 83 60z m1561 -11 c11 19 19 8 30
-41 12 -51 6 -62 -26 -50 -14 5 -40 9 -58 8 -41 -1 -57 7 -57 30 0 19 55 57
69 47 5 -3 13 0 17 7 6 9 9 9 12 -1 4 -11 6 -11 13 0z m-1298 -8 c-7 -2 -21
-2 -30 0 -10 3 -4 5 12 5 17 0 24 -2 18 -5z m1774 -25 c-3 -7 -5 -2 -5 12 0
14 2 19 5 13 2 -7 2 -19 0 -25z m-1592 12 c3 -5 2 -10 -4 -10 -5 0 -13 5 -16
10 -3 6 -2 10 4 10 5 0 13 -4 16 -10z m132 -16 c-9 -9 -28 6 -21 18 4 6 10 6
17 -1 6 -6 8 -13 4 -17z m183 19 c-1 -19 -19 -35 -34 -30 -21 8 -9 37 15 37
10 0 19 -3 19 -7z m140 -8 c30 -16 57 -81 46 -111 -3 -8 -1 -14 5 -14 6 0 49
-39 97 -87 61 -62 101 -93 132 -105 l45 -17 -40 0 c-44 -1 -122 30 -131 52 -3
8 -15 12 -33 9 -20 -3 -30 1 -35 13 -5 14 -2 16 20 11 18 -5 25 -3 22 5 -5 14
-47 20 -67 9 -10 -5 -10 -9 -2 -14 16 -10 14 -26 -4 -26 -14 0 -19 11 -16 38
1 6 -3 12 -9 12 -5 0 -10 -4 -10 -9 0 -6 -9 -9 -19 -8 -11 0 -18 4 -16 8 3 3
-7 17 -20 29 -27 26 -30 24 -15 -14 14 -39 -8 -43 -24 -5 -12 28 -15 30 -19
13 -4 -17 -6 -17 -12 4 -6 18 -10 20 -16 10 -7 -10 -9 -10 -9 0 0 20 25 65 49
86 37 33 22 56 -36 56 -32 0 -26 19 17 48 39 26 60 28 100 7z m845 -15 c-28
-12 -37 -12 -30 0 3 6 16 10 28 9 21 0 21 -1 2 -9z m-675 -49 c0 -12 -6 -21
-15 -21 -11 0 -15 11 -15 36 0 31 2 34 15 20 8 -8 15 -24 15 -35z m110 7 c0
-45 -16 -50 -25 -8 -4 17 -11 30 -16 30 -6 0 -8 4 -4 9 3 6 14 9 25 8 16 -1
20 -9 20 -39z m597 26 c-3 -3 -12 -4 -19 -1 -8 3 -5 6 6 6 11 1 17 -2 13 -5z
m63 -24 c0 -16 -2 -30 -4 -30 -2 0 -11 -3 -20 -6 -9 -3 -16 -1 -16 5 0 6 6 10
12 9 7 -2 14 7 16 19 2 16 -3 23 -20 26 -20 4 -20 4 5 6 24 1 27 -3 27 -29z
m375 16 c28 -12 35 -20 35 -44 0 -17 -10 -37 -25 -52 -20 -19 -32 -22 -70 -17
-39 4 -51 1 -73 -18 l-27 -23 27 -11 c35 -13 40 -24 23 -47 -11 -14 -14 -15
-15 -5 0 8 -12 28 -27 43 l-28 29 20 37 c19 36 22 37 85 42 57 4 65 8 65 25 0
14 -7 20 -22 20 -26 0 -37 10 -28 24 8 14 19 14 60 -3z m-2135 -21 c0 -23 -2
-25 -21 -14 -15 7 -19 8 -15 0 5 -7 1 -9 -8 -5 -21 8 -20 31 2 37 35 9 42 7
42 -18z m390 21 c0 -3 -4 -8 -10 -11 -5 -3 -10 -1 -10 4 0 6 5 11 10 11 6 0
10 -2 10 -4z m737 -58 c-2 -13 -4 -3 -4 22 0 25 2 35 4 23 2 -13 2 -33 0 -45z
m820 15 c-3 -10 -5 -4 -5 12 0 17 2 24 5 18 2 -7 2 -21 0 -30z m-483 11 c18
-7 10 -34 -10 -34 -8 0 -14 7 -14 16 0 9 -5 12 -12 8 -7 -4 -8 -3 -4 4 8 13
17 15 40 6z m-796 -48 c-7 -7 -19 -11 -25 -9 -18 7 -5 23 18 23 16 0 18 -2 7
-14z m536 -2 c9 -8 16 -23 16 -32 -1 -14 -3 -14 -12 3 -15 26 -30 36 -46 30
-7 -3 -10 0 -7 5 9 15 31 12 49 -6z m-1314 -13 c0 -24 -12 -32 -30 -21 -11 7
-11 11 -1 24 18 22 31 20 31 -3z m205 9 c3 -5 1 -10 -4 -10 -6 0 -11 5 -11 10
0 6 2 10 4 10 3 0 8 -4 11 -10z m313 -37 l-1 -48 -4 43 c-4 40 -23 61 -23 25
-1 -17 -1 -17 -11 0 -5 9 -20 17 -32 17 -19 0 -23 -6 -25 -34 -2 -26 2 -36 15
-39 13 -4 12 -5 -5 -6 -21 -1 -23 3 -21 37 4 52 4 52 60 52 l49 0 -2 -47z
m140 24 c3 -15 -1 -17 -23 -11 -17 4 -30 2 -34 -5 -5 -7 -12 -2 -19 14 -12 26
-12 26 30 23 32 -2 44 -8 46 -21z m750 -74 c0 -54 -2 -90 -5 -80 -2 9 -9 15
-14 12 -14 -9 -11 139 3 153 7 7 13 12 14 12 1 0 2 -44 2 -97z m316 83 c-3 -8
-12 -12 -20 -9 -17 6 -9 23 11 23 8 0 12 -6 9 -14z m612 0 c19 -14 19 -15 -1
-22 -11 -4 -23 -12 -27 -18 -12 -17 -19 0 -12 28 7 30 13 32 40 12z m-2242
-18 c8 15 15 19 26 12 13 -8 12 -11 -4 -23 -13 -9 -17 -21 -13 -35 6 -26 -13
-72 -30 -72 -7 0 -10 6 -7 14 3 8 0 17 -6 21 -6 4 -8 20 -4 41 5 27 3 34 -10
34 -19 0 -22 16 -3 23 6 2 18 -5 26 -16 14 -19 14 -19 25 1z m1701 -30 c-9
-44 -25 -59 -25 -25 0 15 5 27 11 27 6 0 9 7 5 15 -3 8 -1 15 5 15 7 0 8 -12
4 -32z m49 -1 c3 -12 6 -43 6 -69 0 -45 -2 -48 -25 -48 -28 0 -29 8 -19 97 7
54 26 64 38 20z m203 11 c-3 -8 -6 -5 -6 6 -1 11 2 17 5 13 3 -3 4 -12 1 -19z
m-1270 0 c-2 -7 -10 -12 -17 -10 -7 2 -17 -3 -21 -10 -6 -9 -9 -6 -9 10 0 17
6 22 26 22 16 0 24 -5 21 -12z m1104 -18 c5 0 9 -12 8 -27 l-1 -28 -13 30 c-8
17 -14 37 -13 45 0 10 2 10 5 -2 2 -10 9 -18 14 -18z m-1704 -11 c-22 -11 -41
-18 -44 -16 -6 7 48 36 67 36 8 0 -2 -9 -23 -20z m1997 12 c11 -4 15 -10 10
-13 -5 -2 -20 1 -34 8 -26 14 -8 18 24 5z m-2160 -16 c-4 -8 -10 -12 -15 -9
-11 6 -2 24 11 24 5 0 7 -7 4 -15z m2287 -17 c6 -22 2 -30 -17 -43 -22 -14
-25 -14 -43 4 -20 20 -38 12 -25 -11 5 -10 4 -10 -6 -2 -7 7 -9 21 -5 33 18
56 83 69 96 19z m-931 8 c0 -8 -51 -13 -56 -5 -3 5 9 9 25 9 17 0 31 -2 31 -4z
m667 -18 c-3 -8 -6 -5 -6 6 -1 11 2 17 5 13 3 -3 4 -12 1 -19z m335 -29 c11
-6 17 -13 14 -16 -11 -11 -46 30 -45 51 2 20 2 20 6 -2 2 -12 13 -27 25 -33z
m-1616 27 c10 -8 16 -18 11 -22 -4 -4 -7 -2 -7 4 0 7 -6 12 -14 12 -8 0 -18 5
-21 10 -9 15 8 12 31 -4z m-712 -22 c5 -14 4 -15 -9 -4 -17 14 -19 20 -6 20 5
0 12 -7 15 -16z m786 -5 c0 -6 -4 -7 -10 -4 -5 3 -10 11 -10 16 0 6 5 7 10 4
6 -3 10 -11 10 -16z m-832 4 c-9 -2 -19 -12 -21 -21 -3 -12 -5 -10 -6 6 -1 17
4 22 22 21 15 -1 17 -3 5 -6z m202 -2 c0 -5 -9 -7 -20 -4 -11 3 -20 7 -20 9 0
2 9 4 20 4 11 0 20 -4 20 -9z m660 -29 c0 -7 -4 -10 -10 -7 -5 3 -10 16 -10
28 0 18 2 19 10 7 5 -8 10 -21 10 -28z m1167 16 c-3 -8 -6 -5 -6 6 -1 11 2 17
5 13 3 -3 4 -12 1 -19z m-1082 2 c3 -5 1 -10 -4 -10 -6 0 -11 5 -11 10 0 6 2
10 4 10 3 0 8 -4 11 -10z m375 -10 c0 -11 -4 -20 -10 -20 -5 0 -10 9 -10 20 0
11 5 20 10 20 6 0 10 -9 10 -20z m785 10 c3 -6 -1 -7 -9 -4 -18 7 -21 14 -7
14 6 0 13 -4 16 -10z m-503 -25 c4 -20 3 -23 -8 -14 -16 13 -19 39 -5 39 5 0
11 -11 13 -25z m38 9 c0 -8 -4 -12 -10 -9 -5 3 -10 10 -10 16 0 5 5 9 10 9 6
0 10 -7 10 -16z m135 5 c11 -17 -1 -21 -15 -4 -8 9 -8 15 -2 15 6 0 14 -5 17
-11z m119 -4 c-4 -8 -8 -15 -10 -15 -2 0 -4 7 -4 15 0 8 4 15 10 15 5 0 7 -7
4 -15z m-554 -60 c-8 -40 -8 -40 -9 15 0 35 3 50 8 40 5 -8 5 -33 1 -55z m847
33 c-3 -7 -5 -2 -5 12 0 14 2 19 5 13 2 -7 2 -19 0 -25z m-1292 2 c3 -5 1 -10
-4 -10 -6 0 -11 5 -11 10 0 6 2 10 4 10 3 0 8 -4 11 -10z m273 -33 c46 -19 86
-38 90 -42 28 -31 -233 45 -263 77 -22 22 93 -1 173 -35z m209 11 c-3 -8 -6
-5 -6 6 -1 11 2 17 5 13 3 -3 4 -12 1 -19z m-58 5 c0 -5 -4 -17 -9 -28 -8 -18
-9 -17 -9 8 -1 15 4 27 9 27 6 0 10 -3 9 -7z m-1242 -25 c-3 -8 -6 -5 -6 6 -1
11 2 17 5 13 3 -3 4 -12 1 -19z m1693 18 c0 -3 -4 -8 -10 -11 -5 -3 -10 -1
-10 4 0 6 5 11 10 11 6 0 10 -2 10 -4z m-1325 -35 c236 -7 265 -12 318 -54 26
-22 20 -30 -8 -11 -17 11 -45 17 -78 16 -29 0 -103 -1 -166 -1 -127 0 -131 -2
-131 -63 l0 -38 50 0 c46 0 52 -3 70 -32 12 -20 20 -50 20 -78 l0 -45 -19 40
c-23 52 -61 77 -109 73 -37 -3 -37 -4 -40 -51 -3 -40 -7 -50 -28 -59 -13 -6
-24 -18 -24 -26 0 -12 -3 -12 -15 -2 -12 10 -15 39 -15 140 0 108 -3 129 -17
142 -29 25 -80 48 -108 48 -17 0 -24 4 -19 11 4 7 21 9 48 4 22 -4 145 -10
271 -14z m1725 10 c0 -5 -14 -11 -32 -15 -73 -15 -108 -67 -108 -164 0 -67 -6
-64 -20 9 -7 39 -19 62 -40 82 -26 25 -36 27 -108 27 l-78 0 -3 -50 -2 -50 55
0 c48 0 57 -3 80 -31 20 -24 26 -41 26 -77 l-1 -47 -20 38 c-25 48 -73 78
-119 75 l-35 -3 -3 -60 c-2 -32 -8 -65 -14 -72 -12 -15 -42 -18 -33 -4 3 5 -4
16 -15 24 -18 13 -21 27 -24 133 -3 115 -4 119 -25 117 -11 -2 -21 1 -21 5 0
10 -103 2 -114 -9 -14 -13 -29 -11 -20 2 3 6 30 22 58 35 49 23 61 24 266 24
118 1 233 5 255 9 55 12 95 13 95 2z m105 -17 c20 -17 24 -24 11 -19 -11 3
-23 0 -28 -7 -5 -9 -8 -6 -8 10 0 26 -30 31 -31 5 0 -12 -2 -13 -6 -5 -5 12
13 42 26 42 3 0 20 -12 36 -26z m-1260 -63 c-4 -18 -13 -31 -22 -31 -12 0 -12
2 1 16 9 8 16 25 16 36 0 12 3 19 6 15 3 -3 3 -19 -1 -36z m382 -18 c-3 -10
-5 -2 -5 17 0 19 2 27 5 18 2 -10 2 -26 0 -35z m813 26 c0 -5 -11 -9 -25 -9
-28 0 -34 16 -7 23 20 4 32 -1 32 -14z m-2115 -14 c18 -13 35 -34 38 -47 6
-21 4 -21 -14 5 -23 30 -50 35 -69 12 -10 -13 -9 -15 11 -15 44 0 54 -17 15
-24 -45 -9 -49 -38 -8 -60 15 -8 21 -15 13 -16 -20 0 -51 30 -51 49 -1 13 -3
13 -15 -3 -8 -11 -15 -14 -15 -7 0 7 -4 10 -8 7 -4 -2 -14 -1 -21 3 -9 6 -5
10 14 15 28 7 30 33 2 28 -9 -1 -24 9 -33 24 -17 25 -17 27 1 40 31 23 103 18
140 -11z m830 -5 c-10 -11 -28 -20 -39 -20 -16 1 -14 4 12 15 17 8 32 20 32
26 0 7 3 9 7 6 3 -4 -2 -16 -12 -27z m281 5 l37 -25 -29 0 c-31 0 -74 24 -74
41 0 16 28 10 66 -16z m-956 -161 c0 -90 -3 -164 -7 -164 -5 0 -8 76 -8 169 0
93 3 167 8 164 4 -2 7 -78 7 -169z m2086 150 c18 -18 24 -32 20 -47 -3 -12 -6
-35 -6 -52 -1 -29 -2 -29 -11 -7 -5 13 -6 35 -3 48 5 19 0 32 -22 55 -34 36
-13 39 22 3z m-674 -156 l3 -173 38 -3 c47 -4 49 -22 2 -22 -20 0 -50 -7 -66
-16 -17 -8 -33 -13 -37 -10 -8 9 28 45 41 42 7 -2 9 -1 5 1 -12 7 -10 353 2
353 6 0 11 -69 12 -172z m647 138 c14 -15 14 -16 -2 -16 -24 0 -30 -21 -17
-55 9 -23 7 -30 -7 -41 -10 -7 -25 -14 -34 -14 -32 0 -58 55 -34 72 6 4 0 8
-11 8 -33 0 -39 31 -12 52 27 22 92 18 117 -6z m-1184 -9 c34 -28 44 -87 21
-122 -16 -24 -15 -27 6 -56 15 -20 28 -28 40 -25 65 21 61 22 45 -10 -17 -33
-110 -124 -147 -144 -16 -9 -9 2 21 32 41 41 45 49 41 84 -2 22 -15 54 -29 72
l-25 33 21 23 c38 40 19 94 -42 120 l-32 14 27 1 c15 1 39 -9 53 -22z m-428
-32 c119 -317 114 -305 138 -285 8 7 15 9 15 5 0 -4 6 -2 14 4 10 8 16 9 21 1
3 -6 11 -8 16 -5 5 4 9 1 9 -5 0 -7 -8 -9 -20 -5 -11 3 -20 2 -20 -4 0 -17
-61 -24 -87 -10 -21 11 -29 11 -54 -3 -34 -20 -37 -13 -9 17 20 22 20 22 1 65
-19 42 -20 42 -71 44 -43 1 -55 -3 -64 -19 -6 -11 -14 -22 -17 -25 -21 -18
-17 -44 8 -66 31 -26 20 -33 -14 -9 -19 13 -23 13 -47 -6 -15 -12 -30 -18 -34
-15 -3 4 -2 10 4 14 17 11 47 76 94 207 24 66 48 126 53 133 19 24 49 9 64
-33z m177 23 c5 -10 7 -10 12 0 7 15 50 16 59 2 5 -8 11 -7 21 1 11 9 18 9 26
1 9 -9 15 -9 25 0 11 9 20 5 43 -17 37 -35 37 -52 4 -88 -14 -16 -24 -29 -23
-30 33 -17 46 -28 62 -49 17 -23 18 -30 7 -62 -25 -76 -134 -111 -188 -61 -15
14 -32 25 -39 25 -7 0 -13 5 -13 10 0 6 7 10 15 10 8 0 15 7 15 15 0 18 -16
20 -23 3 -3 -7 -6 36 -6 96 -1 117 -9 135 -58 136 -13 0 -23 5 -23 10 0 15 77
12 84 -2z m576 0 c0 -5 -11 -8 -24 -8 -38 0 -45 -20 -48 -131 -3 -101 -17
-137 -28 -73 -5 26 -6 27 -12 8 -4 -15 3 -32 21 -53 25 -30 30 -31 101 -31 76
1 97 8 118 45 l11 20 1 -20 c0 -11 -9 -35 -20 -52 -19 -31 -23 -33 -80 -33
-38 0 -60 4 -60 11 0 8 -6 7 -17 -2 -11 -10 -14 -10 -9 -1 5 8 -1 12 -18 12
-14 0 -26 5 -26 11 0 6 -11 20 -25 31 -23 18 -25 25 -27 136 l-3 117 -33 3
c-18 2 -30 6 -28 10 6 10 206 9 206 0z m873 -20 c-4 -7 -8 -16 -9 -20 -1 -5
-2 -11 -3 -15 -1 -5 -6 0 -12 10 -12 20 -4 37 17 37 10 0 12 -5 7 -12z m-2183
-22 c0 -3 -4 -8 -10 -11 -5 -3 -10 -1 -10 4 0 6 5 11 10 11 6 0 10 -2 10 -4z
m717 -183 c-2 -37 -3 -9 -3 62 0 72 1 102 3 68 2 -34 2 -93 0 -130z m457 -70
c7 3 19 1 27 -4 11 -7 10 -9 -4 -9 -10 0 -25 -7 -33 -15 -9 -8 -23 -15 -31
-15 -14 0 -14 2 0 18 14 15 17 44 19 153 l2 134 3 -133 c3 -105 6 -133 17
-129z m-934 84 c0 -56 5 -87 17 -108 22 -36 10 -49 -20 -21 -37 35 -99 30
-170 -14 -32 -20 -61 -33 -64 -30 -7 7 36 56 50 56 5 0 16 8 25 18 10 10 13
12 8 5 -5 -8 -4 -13 2 -13 6 0 14 5 17 10 3 6 30 10 59 10 28 0 57 -4 64 -10
9 -7 9 -7 2 2 -5 7 -10 55 -10 107 0 66 3 91 10 81 5 -8 10 -50 10 -93z m1513
-59 c62 -2 117 1 124 5 6 5 15 22 19 39 7 36 18 24 28 -33 4 -22 20 -48 41
-69 33 -32 45 -60 26 -60 -5 0 -14 7 -21 15 -7 8 -16 13 -20 10 -4 -2 -18 4
-30 15 -13 11 -28 20 -34 21 -6 0 -24 3 -41 5 -16 2 -74 8 -128 14 -96 10
-137 22 -137 40 0 6 -9 10 -20 10 -11 0 -20 6 -20 14 0 10 11 14 35 13 33 -1
45 -10 28 -20 -5 -2 -3 -2 4 -1 6 2 14 -2 17 -9 2 -7 6 26 7 73 l3 85 3 -82 4
-82 112 -3z m337 107 c34 -17 70 -61 70 -84 0 -11 -6 -7 -17 11 -11 17 -29 29
-50 33 -18 3 -33 10 -33 15 0 5 -19 7 -42 5 l-43 -4 25 19 c30 24 52 25 90 5z
m-2103 -27 c-3 -7 -5 -2 -5 12 0 14 2 19 5 13 2 -7 2 -19 0 -25z m1073 12 c0
-5 -2 -10 -4 -10 -3 0 -8 5 -11 10 -3 6 -1 10 4 10 6 0 11 -4 11 -10z m-854
-54 c-4 -17 -13 -26 -26 -26 -11 0 -20 -7 -20 -15 0 -17 -16 -20 -25 -5 -3 6
0 10 7 11 10 0 10 2 1 6 -7 2 -13 13 -13 23 0 13 5 17 19 13 13 -3 23 2 31 17
16 29 35 11 26 -24z m2014 13 c0 -6 -4 -7 -10 -4 -5 3 -10 11 -10 16 0 6 5 7
10 4 6 -3 10 -11 10 -16z m-2200 -70 c-17 -17 -34 -28 -38 -25 -3 4 0 11 8 16
13 9 13 10 0 10 -23 1 19 30 43 30 16 0 14 -5 -13 -31z m1978 25 c15 -4 21
-12 18 -21 -3 -8 -2 -12 2 -9 4 2 12 -7 19 -20 6 -13 9 -24 7 -24 -12 0 -54
33 -54 43 0 5 -8 16 -17 23 -20 15 -11 17 25 8z m-1798 -14 c0 -5 -4 -10 -10
-10 -5 0 -10 5 -10 10 0 6 5 10 10 10 6 0 10 -4 10 -10z m1365 0 c-3 -5 -10
-10 -16 -10 -5 0 -9 5 -9 10 0 6 7 10 16 10 8 0 12 -4 9 -10z m-1587 -111 c-4
-24 0 -32 17 -39 24 -9 53 -40 37 -40 -6 0 -17 7 -26 15 -31 32 -71 8 -41 -25
10 -11 12 -20 6 -24 -11 -7 -51 45 -51 67 0 15 46 77 57 77 3 0 3 -14 1 -31z
m2112 -50 c0 -10 -11 -30 -25 -44 -32 -35 -54 -29 -26 7 26 32 26 38 4 38 -14
0 -19 10 -20 42 l-3 42 35 -34 c19 -19 35 -42 35 -51z m-427 46 c9 -4 17 -18
17 -31 0 -13 5 -24 10 -24 6 0 10 -4 10 -9 0 -5 -10 -7 -22 -4 -23 6 -22 6 2
-16 l25 -23 -25 6 -25 5 24 -20 c34 -28 21 -32 -27 -9 -45 22 -56 24 -48 11 3
-5 -24 -9 -61 -9 -42 0 -71 4 -75 11 -6 9 -8 9 -8 0 0 -9 -109 -12 -460 -12
-342 0 -460 3 -460 11 0 9 -3 9 -12 0 -16 -16 -78 -16 -79 1 0 10 -2 10 -6 0
-3 -8 -23 -13 -49 -13 -25 0 -54 -5 -66 -11 -11 -6 -22 -8 -25 -6 -3 3 8 12
24 21 28 15 28 16 5 22 -21 6 -21 7 -5 20 17 13 17 13 -1 14 -13 0 -16 3 -9
13 6 6 9 20 8 30 -2 9 3 17 11 17 8 0 14 3 14 8 0 9 1288 6 1313 -3z m347 -43
c0 -5 -9 -17 -20 -27 -16 -14 -20 -15 -20 -4 0 16 19 39 32 39 4 0 8 -4 8 -8z
m-1916 -34 c-6 -10 -44 9 -44 21 0 5 11 4 24 -2 13 -7 22 -15 20 -19z m79 5
c-13 -2 -33 -2 -45 0 -13 2 -3 4 22 4 25 0 35 -2 23 -4z m78 -15 c1 -22 1 -22
9 2 8 24 8 23 9 -8 1 -28 -1 -31 -16 -23 -10 5 -26 19 -35 30 -17 20 -17 21 7
21 19 0 25 -5 26 -22z m1540 3 c-11 -11 -29 -24 -40 -31 -17 -9 -21 -8 -21 4
0 10 6 13 15 10 10 -4 15 0 15 15 0 16 6 21 25 21 25 0 25 0 6 -19z m92 12
c-13 -2 -33 -2 -45 0 -13 2 -3 4 22 4 25 0 35 -2 23 -4z m57 3 c0 -11 -19 -15
-25 -6 -3 5 1 10 9 10 9 0 16 -2 16 -4z m-1762 -62 c16 -5 16 -6 -1 -15 -13
-8 -22 -7 -33 1 -18 16 -18 31 1 25 8 -3 23 -8 33 -11z m1679 -11 c-13 -13
-20 -14 -29 -5 -9 9 -6 14 13 21 31 11 37 5 16 -16z m-1794 -4 c-8 -8 -16 -8
-30 0 -16 9 -14 10 12 11 21 0 26 -3 18 -11z m1912 1 c-3 -5 -10 -10 -16 -10
-5 0 -9 5 -9 10 0 6 7 10 16 10 8 0 12 -4 9 -10z m-1702 -21 c-4 -14 -8 -17
-13 -9 -5 8 -10 2 -14 -14 -7 -29 -26 -36 -26 -9 0 20 28 53 46 53 7 0 10 -8
7 -21z m1501 2 c13 -15 15 -24 8 -38 -9 -16 -12 -15 -23 11 -12 25 -14 26 -20
9 -6 -14 -8 -12 -8 10 -1 32 18 36 43 8z m-712 -58 c32 -32 58 -62 58 -68 0
-6 -27 -37 -59 -69 l-59 -59 -62 62 c-62 62 -62 62 -44 84 32 39 98 107 103
107 3 0 31 -26 63 -57z m-979 12 c-3 -9 -8 -14 -10 -11 -3 3 -2 9 2 15 9 16
15 13 8 -4z m77 -43 c-15 -5 -41 18 -34 30 3 5 15 1 26 -9 11 -10 15 -19 8
-21z m1720 29 c0 -13 -29 -35 -37 -28 -7 8 15 37 28 37 5 0 9 -4 9 -9z m-1370
-23 c0 -6 -6 -5 -15 2 -8 7 -15 14 -15 16 0 2 7 1 15 -2 8 -4 15 -11 15 -16z
m160 12 c0 -13 -28 -25 -38 -16 -3 4 0 11 8 16 20 13 30 12 30 0z m690 1 c0
-5 8 -12 18 -15 10 -3 7 -4 -7 -3 -24 2 -44 27 -22 27 6 0 11 -4 11 -9z m-535
-61 c32 -33 56 -62 54 -65 -7 -6 -129 103 -129 116 0 19 17 7 75 -51z m435 52
c0 -5 -29 -36 -65 -70 -79 -74 -87 -55 -10 23 52 51 75 66 75 47z"/>
<path d="M1204 1985 c-3 -8 -4 -20 -2 -27 3 -7 7 -1 10 15 6 29 1 36 -8 12z"/>
<path d="M785 1900 c3 -5 8 -10 11 -10 2 0 4 5 4 10 0 6 -5 10 -11 10 -5 0 -7
-4 -4 -10z"/>
<path d="M1460 1691 c5 -11 15 -23 21 -27 6 -3 3 5 -6 20 -20 30 -30 35 -15 7z"/>
<path d="M1117 1703 c-4 -3 -7 -11 -7 -17 0 -6 5 -5 12 2 6 6 9 14 7 17 -3 3
-9 2 -12 -2z"/>
<path d="M824 1705 c-19 -14 -18 -15 6 -35 14 -11 32 -19 40 -19 8 0 3 7 -12
15 -31 16 -34 24 -16 42 17 17 6 15 -18 -3z"/>
<path d="M1020 1450 c0 -5 4 -10 9 -10 6 0 13 5 16 10 3 6 -1 10 -9 10 -9 0
-16 -4 -16 -10z"/>
<path d="M503 1015 c0 -27 2 -38 4 -22 2 15 2 37 0 50 -2 12 -4 0 -4 -28z"/>
<path d="M1913 1015 c0 -27 2 -38 4 -22 2 15 2 37 0 50 -2 12 -4 0 -4 -28z"/>
<path d="M2372 914 c9 -9 21 -15 27 -13 6 2 -2 10 -17 17 -25 11 -25 11 -10
-4z"/>
<path d="M763 880 l-20 -60 55 0 c42 0 52 3 45 13 -5 6 -17 33 -27 60 -10 26
-21 47 -25 47 -5 0 -17 -27 -28 -60z"/>
<path d="M1103 969 c-18 -6 -23 -16 -23 -44 0 -24 5 -35 15 -36 8 -1 21 -2 28
-3 26 -5 48 15 45 41 -4 33 -36 54 -65 42z"/>
<path d="M1086 834 c-3 -8 -6 -33 -6 -55 0 -21 -5 -39 -11 -39 -6 0 -4 -7 5
-15 21 -21 79 -19 99 3 20 22 22 72 5 94 -19 24 -84 33 -92 12z"/>
<path d="M744 577 c-9 -24 0 -52 16 -52 21 0 24 39 6 55 -13 10 -17 9 -22 -3z
m26 -21 c0 -8 -4 -18 -10 -21 -5 -3 -10 3 -10 14 0 12 5 21 10 21 6 0 10 -6
10 -14z"/>
<path d="M791 548 c1 -24 3 -35 6 -25 2 9 11 17 19 17 20 0 17 18 -3 23 -13 3
-12 5 5 6 28 1 19 21 -9 21 -16 0 -19 -7 -18 -42z"/>
<path d="M867 558 c8 -43 23 -60 23 -26 0 15 3 33 6 42 4 11 0 16 -15 16 -18
0 -20 -4 -14 -32z"/>
<path d="M970 555 c0 -30 3 -35 23 -34 20 0 20 1 3 8 -19 7 -19 8 0 15 19 8
19 8 -1 16 -17 7 -17 9 -2 9 24 1 22 21 -3 21 -16 0 -20 -7 -20 -35z"/>
<path d="M1047 583 c-8 -8 -9 -63 -1 -63 3 0 13 7 21 16 14 13 14 17 2 25 -11
7 -10 9 4 9 10 0 15 5 12 10 -7 11 -28 13 -38 3z"/>
<path d="M1101 576 c-18 -21 -9 -51 14 -51 24 0 32 36 12 53 -11 10 -17 9 -26
-2z m16 -38 c-3 -7 -5 -2 -5 12 0 14 2 19 5 13 2 -7 2 -19 0 -25z"/>
<path d="M1212 578 c-19 -19 -14 -48 11 -57 25 -10 33 0 22 27 -6 15 -8 15
-15 -3 -8 -19 -9 -19 -9 3 -1 14 5 22 15 22 8 0 12 5 9 10 -8 13 -18 13 -33
-2z"/>
<path d="M1410 551 c0 -29 4 -39 15 -37 23 3 30 16 9 16 -16 0 -17 2 -4 10 13
9 13 11 0 20 -13 8 -12 10 3 10 10 0 15 5 12 10 -3 6 -13 10 -21 10 -10 0 -14
-12 -14 -39z"/>
<path d="M1461 549 c1 -35 2 -39 8 -19 l7 25 8 -23 c4 -13 10 -21 14 -18 10
11 12 66 2 66 -6 0 -10 -6 -10 -12 0 -8 -7 -5 -15 6 -14 18 -15 17 -14 -25z"/>
<path d="M1540 548 c0 -32 3 -39 10 -28 9 13 11 13 21 0 8 -12 9 -11 4 7 -3
12 -1 24 5 28 14 9 -6 35 -26 35 -10 0 -14 -13 -14 -42z m30 12 c0 -5 -4 -10
-10 -10 -5 0 -10 5 -10 10 0 6 5 10 10 10 6 0 10 -4 10 -10z"/>
<path d="M1600 556 c0 -33 23 -56 35 -36 4 6 -2 10 -12 10 -15 0 -16 2 -3 10
13 9 13 11 0 20 -13 8 -12 10 3 10 10 0 15 5 12 10 -14 23 -35 9 -35 -24z"/>
<path d="M1763 550 c0 -25 2 -35 4 -22 2 12 2 32 0 45 -2 12 -4 2 -4 -23z"/>
<path d="M911 545 c1 -22 3 -32 6 -22 5 18 23 24 23 7 0 -5 5 -10 10 -10 6 0
10 14 10 30 0 30 -14 41 -23 18 -4 -10 -8 -9 -16 2 -8 12 -10 6 -10 -25z"/>
<path d="M1150 548 c0 -25 3 -29 10 -18 6 10 10 11 10 3 0 -27 15 -12 17 17 2
24 -2 30 -17 30 -16 0 -20 -7 -20 -32z m30 12 c0 -5 -4 -10 -10 -10 -5 0 -10
5 -10 10 0 6 5 10 10 10 6 0 10 -4 10 -10z"/>
<path d="M1264 566 c-8 -22 3 -49 19 -43 6 2 12 14 12 27 0 27 -22 39 -31 16z
m26 -16 c0 -11 -4 -20 -10 -20 -5 0 -10 9 -10 20 0 11 5 20 10 20 6 0 10 -9
10 -20z"/>
<path d="M1318 550 c2 -16 8 -30 12 -30 4 0 10 14 12 30 4 23 1 30 -12 30 -13
0 -16 -7 -12 -30z"/>
<path d="M1368 550 c2 -16 8 -30 12 -30 4 0 10 14 12 30 4 23 1 30 -12 30 -13
0 -16 -7 -12 -30z"/>
<path d="M1657 574 c-4 -4 -7 -19 -7 -33 0 -21 2 -23 10 -11 9 13 11 13 20 0
8 -12 10 -8 8 14 -3 29 -18 43 -31 30z m23 -14 c0 -5 -5 -10 -11 -10 -5 0 -7
5 -4 10 3 6 8 10 11 10 2 0 4 -4 4 -10z"/>
<path d="M1708 545 c3 -21 10 -35 18 -35 8 0 14 5 14 10 0 6 -4 10 -10 10 -5
0 -10 11 -10 25 0 14 -4 25 -8 25 -4 0 -6 -16 -4 -35z"/>
<path d="M1787 574 c-11 -11 -8 -54 3 -54 6 0 10 8 11 18 0 14 2 14 9 -3 l9
-20 1 20 c2 17 3 16 10 -5 7 -22 8 -20 9 14 1 31 -2 36 -12 27 -9 -7 -17 -7
-23 -1 -6 6 -13 7 -17 4z"/>
<path d="M672 551 c4 -13 18 -16 19 -4 0 4 -5 9 -11 12 -7 2 -11 -2 -8 -8z"/>
<path d="M1887 554 c-8 -8 1 -24 14 -24 5 0 9 7 9 15 0 15 -12 20 -23 9z"/>
<path d="M1240 353 c5 -2 10 -11 10 -19 0 -8 9 -14 20 -14 25 0 26 15 3 24
-35 12 -43 14 -33 9z"/>
<path d="M1235 260 c27 -27 51 -50 52 -50 2 0 3 23 3 50 l0 50 -52 0 -52 0 49
-50z"/>
</g>
</svg>
